<svg t="1676096787009" class="icon" viewBox="0 0 1024 1024" version="1.1" xmlns="http://www.w3.org/2000/svg" p-id="2131"
     width="128" height="128">
  <path
    d="M728.914 90.125H298.602v520.313a22.969 22.969 0 0 1-46.875 0V96.218a131.719 131.719 0 0 0-93.75 126.095v591.093a119.063 119.063 0 0 0 119.062 120.469h587.813V226.063A135.938 135.938 0 0 0 728.914 90.125zM427.977 200.75h315.937a22.031 22.031 0 0 1 22.5 22.5 22.5 22.5 0 0 1-22.5 22.5H427.977a22.5 22.5 0 0 1-22.5-22.5 22.031 22.031 0 0 1 22.5-22.5z m0 88.594h281.25a22.5 22.5 0 0 1 0 46.875h-281.25a22.5 22.5 0 0 1 0-46.875z m0 272.343H689.07L653.914 527a24.844 24.844 0 0 1 0-33.75 24.375 24.375 0 0 1 34.219 0l73.125 73.594a23.437 23.437 0 0 1 7.031 17.812 24.375 24.375 0 0 1-4.219 13.594l-2.343 3.281-71.25 71.25a23.906 23.906 0 0 1-33.75 0 24.375 24.375 0 0 1 0-34.218l31.406-30.938H426.102a22.5 22.5 0 0 1-20.625-23.906 22.5 22.5 0 0 1 20.625-22.032z m393.28 320.157a3.281 3.281 0 0 1-7.03 5.156h-555a53.906 53.906 0 0 1-54.375-52.969 57.187 57.187 0 0 1 53.437-55.312h555.938a3.281 3.281 0 0 1 3.75 3.75z"
    p-id="2132"></path>
</svg>
