<svg t="1675484407064" class="icon" viewBox="0 0 1026 1024" version="1.1" xmlns="http://www.w3.org/2000/svg" p-id="6481" width="200" height="200"><path d="M969.213784 1023.999988a57.975733 57.975733 0 0 1-31.561367-9.315266L750.437432 893.160215H60.244099a60.290157 60.290157 0 0 1-60.22107-60.221069V60.22107A60.290157 60.290157 0 0 1 60.244099 0.057573h906.424971a60.290157 60.290157 0 0 1 60.209555 60.221069v906.390428q0 1.508405-0.069088 3.005296a56.570959 56.570959 0 0 1-31.158358 47.981108 58.206024 58.206024 0 0 1-26.437395 6.344514z m6.022107-67.279485z m-906.19468-132.647557h683.963964a60.036837 60.036837 0 0 1 32.78191 9.706761l172.004271 111.621998v-876.256863H69.087269z" fill="#020202" p-id="6482"></path><path d="M148.503085 198.09623m34.543635 0l660.785185 0q34.543635 0 34.543635 34.543634l0 0q0 34.543635-34.543635 34.543635l-660.785185 0q-34.543635 0-34.543635-34.543635l0 0q0-34.543635 34.543635-34.543634Z" fill="#070707" p-id="6483"></path><path d="M148.503085 401.512179m34.543635 0l595.76255 0q34.543635 0 34.543635 34.543635l0 0q0 34.543635-34.543635 34.543634l-595.76255 0q-34.543635 0-34.543635-34.543634l0 0q0-34.543635 34.543635-34.543635Z" fill="#070707" p-id="6484"></path><path d="M148.503085 615.049413m34.543635 0l530.75143 0q34.543635 0 34.543635 34.543635l0 0q0 34.543635-34.543635 34.543635l-530.75143 0q-34.543635 0-34.543635-34.543635l0 0q0-34.543635 34.543635-34.543635Z" fill="#070707" p-id="6485"></path></svg>