<svg t="1675493597697" class="icon" viewBox="0 0 1195 1024" version="1.1" xmlns="http://www.w3.org/2000/svg"
     p-id="16484" width="200" height="200">
  <path
    d="M597.76 44.032c289.28 0 531.968 199.68 597.76 468.650667a615.594667 615.594667 0 0 1-1195.52 0A615.594667 615.594667 0 0 1 597.76 44.032z m0 841.301333a519.68 519.68 0 0 0 498.346667-372.650666 519.68 519.68 0 0 0-996.693334 0 519.68 519.68 0 0 0 498.346667 372.650666zM597.333333 736a224 224 0 1 1 0-448 224 224 0 0 1 0 448zM597.333333 640a128 128 0 1 0 0-256 128 128 0 0 0 0 256z"
    p-id="16485"></path>
</svg>
